<?xml version="1.0" encoding="utf-8"?>
<!-- Generator: Adobe Illustrator 19.0.0, SVG Export Plug-In . SVG Version: 6.00 Build 0)  -->
<svg version="1.1" id="Capa_1" xmlns="http://www.w3.org/2000/svg" xmlns:xlink="http://www.w3.org/1999/xlink" x="0px" y="0px"
	 viewBox="0 0 250 70" style="enable-background:new 0 0 250 70;" xml:space="preserve">
<style type="text/css">
	.st0{fill:#3E3F40;}
	.st1{fill-rule:evenodd;clip-rule:evenodd;fill:#3E3F40;}
	.st2{fill-rule:evenodd;clip-rule:evenodd;fill:#60BED4;}
	.st3{fill-rule:evenodd;clip-rule:evenodd;fill:#B7BC00;}
	.st4{fill-rule:evenodd;clip-rule:evenodd;fill:#00577B;}
</style>
<g>
	<g>
		<path class="st0" d="M89.7,56.3c-0.1,0.2-0.2,0.4-0.4,0.6c-0.2,0.2-0.4,0.3-0.6,0.4c-0.2,0.1-0.5,0.1-0.7,0.1h-2.4v-7.5H88
			c0.3,0,0.5,0,0.7,0.1c0.2,0.1,0.4,0.2,0.6,0.4c0.2,0.2,0.3,0.4,0.4,0.6c0.1,0.2,0.1,0.5,0.1,0.7v0.1c0,0.2,0,0.3-0.1,0.5
			c0,0.2-0.1,0.3-0.2,0.5c-0.1,0.1-0.2,0.3-0.3,0.4c-0.1,0.1-0.3,0.2-0.4,0.3c0.1,0.1,0.3,0.2,0.4,0.3c0.1,0.1,0.2,0.2,0.3,0.4
			c0.1,0.1,0.2,0.3,0.2,0.5c0,0.2,0.1,0.3,0.1,0.5v0.5C89.9,55.8,89.8,56.1,89.7,56.3z M89.2,51.8c0-0.2,0-0.3-0.1-0.5
			c-0.1-0.1-0.1-0.3-0.3-0.4c-0.1-0.1-0.2-0.2-0.4-0.3c-0.1-0.1-0.3-0.1-0.5-0.1h-1.7v2.6H88c0.2,0,0.3,0,0.5-0.1
			c0.1-0.1,0.3-0.1,0.4-0.3c0.1-0.1,0.2-0.2,0.3-0.4c0.1-0.1,0.1-0.3,0.1-0.5V51.8z M89.2,55c0-0.2,0-0.3-0.1-0.5
			c-0.1-0.1-0.1-0.3-0.3-0.4c-0.1-0.1-0.2-0.2-0.4-0.3c-0.1-0.1-0.3-0.1-0.5-0.1h-1.7v3H88c0.2,0,0.3,0,0.5-0.1
			c0.1-0.1,0.3-0.1,0.4-0.3c0.1-0.1,0.2-0.2,0.3-0.4c0.1-0.1,0.1-0.3,0.1-0.5V55z"/>
		<path class="st0" d="M94.4,56.6c-0.1,0.2-0.2,0.4-0.3,0.5s-0.3,0.3-0.5,0.3c-0.2,0.1-0.4,0.1-0.6,0.1h-0.4c-0.2,0-0.4,0-0.6-0.1
			c-0.2-0.1-0.4-0.2-0.5-0.3s-0.3-0.3-0.3-0.5c-0.1-0.2-0.1-0.4-0.1-0.6v-2.4c0-0.2,0-0.4,0.1-0.6c0.1-0.2,0.2-0.4,0.3-0.5
			s0.3-0.3,0.5-0.3c0.2-0.1,0.4-0.1,0.6-0.1H93c0.2,0,0.4,0,0.6,0.1c0.2,0.1,0.4,0.2,0.5,0.3s0.3,0.3,0.3,0.5
			c0.1,0.2,0.1,0.4,0.1,0.6v1.3h-2.9V56c0,0.1,0,0.3,0.1,0.4c0,0.1,0.1,0.2,0.2,0.3c0.1,0.1,0.2,0.2,0.3,0.2c0.1,0,0.2,0.1,0.4,0.1
			H93c0.1,0,0.3,0,0.4-0.1c0.1,0,0.2-0.1,0.3-0.2c0.1-0.1,0.2-0.2,0.2-0.3c0-0.1,0.1-0.2,0.1-0.4v-0.4l0.6,0.1V56
			C94.5,56.2,94.5,56.4,94.4,56.6z M93.9,53.5c0-0.1,0-0.3-0.1-0.4c0-0.1-0.1-0.2-0.2-0.3c-0.1-0.1-0.2-0.2-0.3-0.2
			c-0.1,0-0.2-0.1-0.4-0.1h-0.4c-0.1,0-0.3,0-0.4,0.1c-0.1,0-0.2,0.1-0.3,0.2c-0.1,0.1-0.2,0.2-0.2,0.3c0,0.1-0.1,0.2-0.1,0.4v0.8
			h2.3V53.5z"/>
		<path class="st0" d="M99.3,56.6c-0.1,0.2-0.2,0.4-0.3,0.5c-0.1,0.1-0.3,0.3-0.5,0.3c-0.2,0.1-0.4,0.1-0.6,0.1h-0.4
			c-0.2,0-0.4,0-0.6-0.1c-0.2-0.1-0.4-0.2-0.5-0.3S96,56.8,96,56.6c-0.1-0.2-0.1-0.4-0.1-0.6v-2.4c0-0.2,0-0.4,0.1-0.6
			c0.1-0.2,0.2-0.4,0.3-0.5s0.3-0.3,0.5-0.3c0.2-0.1,0.4-0.1,0.6-0.1h0.4c0.2,0,0.4,0,0.6,0.1c0.2,0.1,0.4,0.2,0.5,0.3
			c0.1,0.1,0.3,0.3,0.3,0.5c0.1,0.2,0.1,0.4,0.1,0.6v0.2l-0.6,0.1v-0.4c0-0.1,0-0.3-0.1-0.4c0-0.1-0.1-0.2-0.2-0.3
			c-0.1-0.1-0.2-0.2-0.3-0.2c-0.1,0-0.2-0.1-0.4-0.1h-0.4c-0.1,0-0.3,0-0.4,0.1c-0.1,0-0.2,0.1-0.3,0.2c-0.1,0.1-0.2,0.2-0.2,0.3
			c0,0.1-0.1,0.2-0.1,0.4V56c0,0.1,0,0.3,0.1,0.4c0,0.1,0.1,0.2,0.2,0.3c0.1,0.1,0.2,0.2,0.3,0.2c0.1,0,0.2,0.1,0.4,0.1h0.4
			c0.1,0,0.3,0,0.4-0.1c0.1,0,0.2-0.1,0.3-0.2c0.1-0.1,0.2-0.2,0.2-0.3c0-0.1,0.1-0.2,0.1-0.4v-0.4l0.6,0.1V56
			C99.4,56.2,99.4,56.4,99.3,56.6z"/>
		<path class="st0" d="M104.1,57.4l-0.4-0.5c-0.1,0.2-0.3,0.3-0.6,0.5c-0.2,0.1-0.5,0.2-0.7,0.2h-0.2c-0.2,0-0.4,0-0.6-0.1
			c-0.2-0.1-0.4-0.2-0.5-0.3s-0.3-0.3-0.3-0.5c-0.1-0.2-0.1-0.4-0.1-0.6v-0.1c0-0.2,0-0.4,0.1-0.6c0.1-0.2,0.2-0.4,0.3-0.5
			s0.3-0.3,0.5-0.3c0.2-0.1,0.4-0.1,0.6-0.1h1.4v-0.8c0-0.1,0-0.3-0.1-0.4c0-0.1-0.1-0.2-0.2-0.3c-0.1-0.1-0.2-0.2-0.3-0.2
			c-0.1,0-0.2-0.1-0.4-0.1h-0.4c-0.1,0-0.3,0-0.4,0.1c-0.1,0-0.2,0.1-0.3,0.2c-0.1,0.1-0.2,0.2-0.2,0.3c0,0.1-0.1,0.2-0.1,0.4v0.2
			l-0.6-0.1v-0.1c0-0.2,0-0.4,0.1-0.6c0.1-0.2,0.2-0.4,0.3-0.5s0.3-0.3,0.5-0.3c0.2-0.1,0.4-0.1,0.6-0.1h0.4c0.2,0,0.4,0,0.6,0.1
			c0.2,0.1,0.4,0.2,0.5,0.3s0.3,0.3,0.3,0.5c0.1,0.2,0.1,0.4,0.1,0.6v3.9H104.1z M103.7,54.8h-1.4c-0.1,0-0.3,0-0.4,0.1
			c-0.1,0-0.2,0.1-0.3,0.2c-0.1,0.1-0.2,0.2-0.2,0.3c0,0.1-0.1,0.2-0.1,0.4V56c0,0.1,0,0.3,0.1,0.4c0,0.1,0.1,0.2,0.2,0.3
			c0.1,0.1,0.2,0.2,0.3,0.2c0.1,0,0.2,0.1,0.4,0.1h0.4c0.1,0,0.3,0,0.4-0.1c0.1,0,0.2-0.1,0.3-0.2c0.1-0.1,0.2-0.2,0.2-0.3
			c0-0.1,0.1-0.2,0.1-0.4V54.8z"/>
		<path class="st0" d="M109.3,56.1c0,0.2,0,0.4-0.1,0.6c-0.1,0.2-0.2,0.3-0.4,0.5c-0.2,0.1-0.3,0.2-0.5,0.3
			c-0.2,0.1-0.4,0.1-0.6,0.1h-0.4c-0.2,0-0.4,0-0.6-0.1c-0.2-0.1-0.4-0.2-0.5-0.3s-0.3-0.3-0.4-0.5c-0.1-0.2-0.1-0.4-0.1-0.6v-0.2
			l0.6-0.1V56c0,0.1,0,0.3,0.1,0.4c0.1,0.1,0.1,0.2,0.2,0.3c0.1,0.1,0.2,0.2,0.3,0.2c0.1,0,0.2,0.1,0.4,0.1h0.4c0.1,0,0.3,0,0.4-0.1
			c0.1,0,0.2-0.1,0.3-0.2c0.1-0.1,0.2-0.2,0.2-0.3c0.1-0.1,0.1-0.2,0.1-0.3c0-0.2,0-0.3-0.1-0.5c-0.1-0.1-0.2-0.2-0.3-0.3
			c-0.1-0.1-0.3-0.2-0.5-0.2c-0.2-0.1-0.4-0.1-0.5-0.2c-0.2-0.1-0.4-0.1-0.5-0.2c-0.2-0.1-0.3-0.2-0.5-0.3c-0.1-0.1-0.2-0.3-0.3-0.4
			c-0.1-0.2-0.1-0.4-0.1-0.6c0-0.2,0-0.4,0.1-0.6c0.1-0.2,0.2-0.3,0.3-0.5c0.1-0.1,0.3-0.2,0.5-0.3c0.2-0.1,0.4-0.1,0.6-0.1h0.4
			c0.2,0,0.4,0,0.6,0.1c0.2,0.1,0.4,0.2,0.5,0.3s0.3,0.3,0.3,0.5c0.1,0.2,0.1,0.4,0.1,0.6v0l-0.6,0.1v-0.2c0-0.1,0-0.3-0.1-0.4
			c0-0.1-0.1-0.2-0.2-0.3c-0.1-0.1-0.2-0.2-0.3-0.2c-0.1,0-0.2-0.1-0.4-0.1h-0.4c-0.1,0-0.3,0-0.4,0.1c-0.1,0-0.2,0.1-0.3,0.2
			c-0.1,0.1-0.2,0.2-0.2,0.3c0,0.1-0.1,0.2-0.1,0.3c0,0.2,0,0.3,0.1,0.5s0.2,0.2,0.3,0.3s0.3,0.1,0.5,0.2c0.2,0.1,0.4,0.1,0.5,0.2
			s0.4,0.1,0.5,0.2c0.2,0.1,0.3,0.2,0.5,0.3c0.1,0.1,0.2,0.3,0.3,0.4C109.3,55.6,109.3,55.8,109.3,56.1z"/>
		<path class="st0" d="M113.9,59.6h-0.6l1-2.6l-1.7-4.9h0.6l1.4,4.1l0,0.3l0-0.3l1.4-4.1h0.6L113.9,59.6z"/>
		<path class="st0" d="M123.9,56.4c-0.1,0.2-0.2,0.4-0.4,0.6c-0.2,0.2-0.4,0.3-0.6,0.4c-0.2,0.1-0.5,0.1-0.7,0.1h-0.5
			c-0.3,0-0.5,0-0.7-0.1c-0.2-0.1-0.4-0.2-0.6-0.4c-0.2-0.2-0.3-0.4-0.4-0.6c-0.1-0.2-0.1-0.5-0.1-0.7v-4c0-0.3,0-0.5,0.1-0.7
			c0.1-0.2,0.2-0.4,0.4-0.6c0.2-0.2,0.4-0.3,0.6-0.4c0.2-0.1,0.5-0.1,0.7-0.1h0.5c0.3,0,0.5,0,0.7,0.1c0.2,0.1,0.4,0.2,0.6,0.4
			c0.2,0.2,0.3,0.4,0.4,0.6c0.1,0.2,0.1,0.5,0.1,0.7v0.3l-0.7,0.1v-0.4c0-0.2,0-0.3-0.1-0.5c-0.1-0.1-0.1-0.3-0.3-0.4
			c-0.1-0.1-0.2-0.2-0.4-0.3c-0.1-0.1-0.3-0.1-0.5-0.1h-0.5c-0.2,0-0.3,0-0.5,0.1c-0.1,0.1-0.3,0.1-0.4,0.3
			c-0.1,0.1-0.2,0.2-0.3,0.4c-0.1,0.1-0.1,0.3-0.1,0.5v4c0,0.2,0,0.3,0.1,0.5c0.1,0.1,0.1,0.3,0.3,0.4c0.1,0.1,0.2,0.2,0.4,0.3
			c0.1,0.1,0.3,0.1,0.5,0.1h0.5c0.2,0,0.3,0,0.5-0.1c0.1-0.1,0.3-0.1,0.4-0.3s0.2-0.2,0.3-0.4c0.1-0.1,0.1-0.3,0.1-0.5v-0.4l0.7,0.1
			v0.3C124.1,55.9,124,56.2,123.9,56.4z"/>
		<path class="st0" d="M128.8,56.6c-0.1,0.2-0.2,0.4-0.3,0.5s-0.3,0.3-0.5,0.3c-0.2,0.1-0.4,0.1-0.6,0.1H127c-0.2,0-0.4,0-0.6-0.1
			c-0.2-0.1-0.4-0.2-0.5-0.3s-0.3-0.3-0.3-0.5c-0.1-0.2-0.1-0.4-0.1-0.6v-2.4c0-0.2,0-0.4,0.1-0.6c0.1-0.2,0.2-0.4,0.3-0.5
			s0.3-0.3,0.5-0.3c0.2-0.1,0.4-0.1,0.6-0.1h0.4c0.2,0,0.4,0,0.6,0.1c0.2,0.1,0.4,0.2,0.5,0.3s0.3,0.3,0.3,0.5
			c0.1,0.2,0.1,0.4,0.1,0.6V56C129,56.2,128.9,56.4,128.8,56.6z M128.3,53.5c0-0.1,0-0.3-0.1-0.4c0-0.1-0.1-0.2-0.2-0.3
			c-0.1-0.1-0.2-0.2-0.3-0.2c-0.1,0-0.2-0.1-0.4-0.1H127c-0.1,0-0.3,0-0.4,0.1c-0.1,0-0.2,0.1-0.3,0.2c-0.1,0.1-0.2,0.2-0.2,0.3
			c0,0.1-0.1,0.2-0.1,0.4V56c0,0.1,0,0.3,0.1,0.4c0,0.1,0.1,0.2,0.2,0.3c0.1,0.1,0.2,0.2,0.3,0.2c0.1,0,0.2,0.1,0.4,0.1h0.4
			c0.1,0,0.3,0,0.4-0.1c0.1,0,0.2-0.1,0.3-0.2c0.1-0.1,0.2-0.2,0.2-0.3c0-0.1,0.1-0.2,0.1-0.4V53.5z"/>
		<path class="st0" d="M130.2,54.1v-0.6h2v0.6H130.2z"/>
		<path class="st0" d="M135.2,50.5c-0.1,0-0.2,0-0.3,0.1c-0.1,0-0.2,0.1-0.2,0.2c-0.1,0.1-0.1,0.2-0.2,0.2s-0.1,0.2-0.1,0.3v0.8h1.3
			v0.6h-1.3v4.8h-0.6v-4.8h-1v-0.6h1v-0.7c0-0.2,0-0.4,0.1-0.6c0.1-0.2,0.2-0.3,0.3-0.5c0.1-0.1,0.3-0.2,0.5-0.3
			c0.2-0.1,0.4-0.1,0.6-0.1h0.6v0.6H135.2z"/>
		<path class="st0" d="M136.6,50.8v-0.9h0.8v0.9H136.6z M136.7,57.4v-5.4h0.6v5.4H136.7z"/>
		<path class="st0" d="M141.8,57.4v-3.9c0-0.1,0-0.3-0.1-0.4c0-0.1-0.1-0.2-0.2-0.3c-0.1-0.1-0.2-0.2-0.3-0.2
			c-0.1,0-0.2-0.1-0.4-0.1h-0.4c-0.1,0-0.3,0-0.4,0.1c-0.1,0-0.2,0.1-0.3,0.2c-0.1,0.1-0.2,0.2-0.2,0.3c0,0.1-0.1,0.2-0.1,0.4v3.9
			h-0.6v-5.4h0.2l0.4,0.5c0.1-0.2,0.3-0.4,0.6-0.5c0.2-0.1,0.5-0.2,0.7-0.2h0.2c0.2,0,0.4,0,0.6,0.1c0.2,0.1,0.4,0.2,0.5,0.3
			s0.3,0.3,0.3,0.5c0.1,0.2,0.1,0.4,0.1,0.6v3.9H141.8z"/>
		<path class="st0" d="M147.1,57.4l-0.4-0.5c-0.1,0.2-0.3,0.3-0.6,0.5c-0.2,0.1-0.5,0.2-0.7,0.2h-0.2c-0.2,0-0.4,0-0.6-0.1
			c-0.2-0.1-0.4-0.2-0.5-0.3s-0.3-0.3-0.3-0.5c-0.1-0.2-0.1-0.4-0.1-0.6v-0.1c0-0.2,0-0.4,0.1-0.6c0.1-0.2,0.2-0.4,0.3-0.5
			s0.3-0.3,0.5-0.3c0.2-0.1,0.4-0.1,0.6-0.1h1.4v-0.8c0-0.1,0-0.3-0.1-0.4c0-0.1-0.1-0.2-0.2-0.3c-0.1-0.1-0.2-0.2-0.3-0.2
			c-0.1,0-0.2-0.1-0.4-0.1h-0.4c-0.1,0-0.3,0-0.4,0.1c-0.1,0-0.2,0.1-0.3,0.2c-0.1,0.1-0.2,0.2-0.2,0.3c0,0.1-0.1,0.2-0.1,0.4v0.2
			l-0.6-0.1v-0.1c0-0.2,0-0.4,0.1-0.6c0.1-0.2,0.2-0.4,0.3-0.5s0.3-0.3,0.5-0.3c0.2-0.1,0.4-0.1,0.6-0.1h0.4c0.2,0,0.4,0,0.6,0.1
			c0.2,0.1,0.4,0.2,0.5,0.3c0.1,0.1,0.3,0.3,0.3,0.5c0.1,0.2,0.1,0.4,0.1,0.6v3.9H147.1z M146.6,54.8h-1.4c-0.1,0-0.3,0-0.4,0.1
			c-0.1,0-0.2,0.1-0.3,0.2c-0.1,0.1-0.2,0.2-0.2,0.3c0,0.1-0.1,0.2-0.1,0.4V56c0,0.1,0,0.3,0.1,0.4c0,0.1,0.1,0.2,0.2,0.3
			c0.1,0.1,0.2,0.2,0.3,0.2c0.1,0,0.2,0.1,0.4,0.1h0.4c0.1,0,0.3,0,0.4-0.1c0.1,0,0.2-0.1,0.3-0.2c0.1-0.1,0.2-0.2,0.2-0.3
			c0-0.1,0.1-0.2,0.1-0.4V54.8z"/>
		<path class="st0" d="M151.5,57.4v-3.9c0-0.1,0-0.3-0.1-0.4c0-0.1-0.1-0.2-0.2-0.3c-0.1-0.1-0.2-0.2-0.3-0.2
			c-0.1,0-0.2-0.1-0.4-0.1h-0.4c-0.1,0-0.3,0-0.4,0.1c-0.1,0-0.2,0.1-0.3,0.2c-0.1,0.1-0.2,0.2-0.2,0.3c0,0.1-0.1,0.2-0.1,0.4v3.9
			h-0.6v-5.4h0.2l0.4,0.5c0.1-0.2,0.3-0.4,0.6-0.5c0.2-0.1,0.5-0.2,0.7-0.2h0.2c0.2,0,0.4,0,0.6,0.1c0.2,0.1,0.4,0.2,0.5,0.3
			s0.3,0.3,0.3,0.5c0.1,0.2,0.1,0.4,0.1,0.6v3.9H151.5z"/>
		<path class="st0" d="M156.9,56.6c-0.1,0.2-0.2,0.4-0.3,0.5s-0.3,0.3-0.5,0.3c-0.2,0.1-0.4,0.1-0.6,0.1h-0.4c-0.2,0-0.4,0-0.6-0.1
			c-0.2-0.1-0.4-0.2-0.5-0.3s-0.3-0.3-0.3-0.5c-0.1-0.2-0.1-0.4-0.1-0.6v-2.4c0-0.2,0-0.4,0.1-0.6c0.1-0.2,0.2-0.4,0.3-0.5
			s0.3-0.3,0.5-0.3c0.2-0.1,0.4-0.1,0.6-0.1h0.4c0.2,0,0.4,0,0.6,0.1c0.2,0.1,0.4,0.2,0.5,0.3s0.3,0.3,0.3,0.5
			c0.1,0.2,0.1,0.4,0.1,0.6v0.2l-0.6,0.1v-0.4c0-0.1,0-0.3-0.1-0.4c0-0.1-0.1-0.2-0.2-0.3c-0.1-0.1-0.2-0.2-0.3-0.2
			c-0.1,0-0.2-0.1-0.4-0.1h-0.4c-0.1,0-0.3,0-0.4,0.1c-0.1,0-0.2,0.1-0.3,0.2c-0.1,0.1-0.2,0.2-0.2,0.3c0,0.1-0.1,0.2-0.1,0.4V56
			c0,0.1,0,0.3,0.1,0.4c0,0.1,0.1,0.2,0.2,0.3s0.2,0.2,0.3,0.2c0.1,0,0.2,0.1,0.4,0.1h0.4c0.1,0,0.3,0,0.4-0.1
			c0.1,0,0.2-0.1,0.3-0.2c0.1-0.1,0.2-0.2,0.2-0.3c0-0.1,0.1-0.2,0.1-0.4v-0.4l0.6,0.1V56C157.1,56.2,157,56.4,156.9,56.6z"/>
		<path class="st0" d="M158.5,50.8v-0.9h0.8v0.9H158.5z M158.6,57.4v-5.4h0.6v5.4H158.6z"/>
		<path class="st0" d="M164.1,57.4l-0.4-0.5c-0.1,0.2-0.3,0.3-0.6,0.5c-0.2,0.1-0.5,0.2-0.7,0.2h-0.2c-0.2,0-0.4,0-0.6-0.1
			c-0.2-0.1-0.4-0.2-0.5-0.3s-0.3-0.3-0.3-0.5c-0.1-0.2-0.1-0.4-0.1-0.6v-0.1c0-0.2,0-0.4,0.1-0.6c0.1-0.2,0.2-0.4,0.3-0.5
			s0.3-0.3,0.5-0.3c0.2-0.1,0.4-0.1,0.6-0.1h1.4v-0.8c0-0.1,0-0.3-0.1-0.4c0-0.1-0.1-0.2-0.2-0.3c-0.1-0.1-0.2-0.2-0.3-0.2
			c-0.1,0-0.2-0.1-0.4-0.1h-0.4c-0.1,0-0.3,0-0.4,0.1c-0.1,0-0.2,0.1-0.3,0.2c-0.1,0.1-0.2,0.2-0.2,0.3c0,0.1-0.1,0.2-0.1,0.4v0.2
			l-0.6-0.1v-0.1c0-0.2,0-0.4,0.1-0.6c0.1-0.2,0.2-0.4,0.3-0.5s0.3-0.3,0.5-0.3c0.2-0.1,0.4-0.1,0.6-0.1h0.4c0.2,0,0.4,0,0.6,0.1
			c0.2,0.1,0.4,0.2,0.5,0.3s0.3,0.3,0.3,0.5c0.1,0.2,0.1,0.4,0.1,0.6v3.9H164.1z M163.7,54.8h-1.4c-0.1,0-0.3,0-0.4,0.1
			c-0.1,0-0.2,0.1-0.3,0.2c-0.1,0.1-0.2,0.2-0.2,0.3c0,0.1-0.1,0.2-0.1,0.4V56c0,0.1,0,0.3,0.1,0.4c0,0.1,0.1,0.2,0.2,0.3
			c0.1,0.1,0.2,0.2,0.3,0.2c0.1,0,0.2,0.1,0.4,0.1h0.4c0.1,0,0.3,0,0.4-0.1c0.1,0,0.2-0.1,0.3-0.2c0.1-0.1,0.2-0.2,0.2-0.3
			c0-0.1,0.1-0.2,0.1-0.4V54.8z"/>
		<path class="st0" d="M171.3,57.4v-3.9c0-0.1,0-0.3-0.1-0.4c0-0.1-0.1-0.2-0.2-0.3c-0.1-0.1-0.2-0.2-0.3-0.2
			c-0.1,0-0.2-0.1-0.4-0.1H170c-0.1,0-0.3,0-0.4,0.1c-0.1,0-0.2,0.1-0.3,0.2c-0.1,0.1-0.2,0.2-0.2,0.3c0,0.1-0.1,0.2-0.1,0.4v3.9
			h-0.6v-3.9c0-0.1,0-0.3-0.1-0.4c0-0.1-0.1-0.2-0.2-0.3c-0.1-0.1-0.2-0.2-0.3-0.2c-0.1,0-0.2-0.1-0.4-0.1h-0.3
			c-0.1,0-0.3,0-0.4,0.1c-0.1,0-0.2,0.1-0.3,0.2c-0.1,0.1-0.2,0.2-0.2,0.3c0,0.1-0.1,0.2-0.1,0.4v3.9h-0.6v-5.4h0.2l0.4,0.5
			c0.1-0.2,0.3-0.4,0.6-0.5c0.2-0.1,0.5-0.2,0.7-0.2h0.1c0.3,0,0.6,0.1,0.8,0.2c0.2,0.2,0.4,0.4,0.6,0.6c0.1-0.1,0.1-0.2,0.2-0.3
			c0.1-0.1,0.2-0.2,0.3-0.3c0.1-0.1,0.2-0.1,0.4-0.2c0.1,0,0.3-0.1,0.4-0.1h0.1c0.2,0,0.4,0,0.6,0.1c0.2,0.1,0.4,0.2,0.5,0.3
			s0.3,0.3,0.3,0.5c0.1,0.2,0.1,0.4,0.1,0.6v3.9H171.3z"/>
		<path class="st0" d="M173.4,50.8v-0.9h0.8v0.9H173.4z M173.5,57.4v-5.4h0.6v5.4H173.5z"/>
		<path class="st0" d="M179.1,56.6c-0.1,0.2-0.2,0.4-0.3,0.5s-0.3,0.3-0.5,0.3c-0.2,0.1-0.4,0.1-0.6,0.1h-0.4c-0.2,0-0.4,0-0.6-0.1
			c-0.2-0.1-0.4-0.2-0.5-0.3s-0.3-0.3-0.3-0.5c-0.1-0.2-0.1-0.4-0.1-0.6v-2.4c0-0.2,0-0.4,0.1-0.6c0.1-0.2,0.2-0.4,0.3-0.5
			s0.3-0.3,0.5-0.3c0.2-0.1,0.4-0.1,0.6-0.1h0.4c0.2,0,0.4,0,0.6,0.1c0.2,0.1,0.4,0.2,0.5,0.3s0.3,0.3,0.3,0.5
			c0.1,0.2,0.1,0.4,0.1,0.6v1.3h-2.9V56c0,0.1,0,0.3,0.1,0.4c0,0.1,0.1,0.2,0.2,0.3c0.1,0.1,0.2,0.2,0.3,0.2c0.1,0,0.2,0.1,0.4,0.1
			h0.4c0.1,0,0.3,0,0.4-0.1c0.1,0,0.2-0.1,0.3-0.2c0.1-0.1,0.2-0.2,0.2-0.3c0-0.1,0.1-0.2,0.1-0.4v-0.4l0.6,0.1V56
			C179.2,56.2,179.2,56.4,179.1,56.6z M178.6,53.5c0-0.1,0-0.3-0.1-0.4c0-0.1-0.1-0.2-0.2-0.3c-0.1-0.1-0.2-0.2-0.3-0.2
			c-0.1,0-0.2-0.1-0.4-0.1h-0.4c-0.1,0-0.3,0-0.4,0.1c-0.1,0-0.2,0.1-0.3,0.2c-0.1,0.1-0.2,0.2-0.2,0.3c0,0.1-0.1,0.2-0.1,0.4v0.8
			h2.3V53.5z"/>
		<path class="st0" d="M183.4,57.4v-3.9c0-0.1,0-0.3-0.1-0.4c0-0.1-0.1-0.2-0.2-0.3c-0.1-0.1-0.2-0.2-0.3-0.2
			c-0.1,0-0.2-0.1-0.4-0.1h-0.4c-0.1,0-0.3,0-0.4,0.1c-0.1,0-0.2,0.1-0.3,0.2c-0.1,0.1-0.2,0.2-0.2,0.3c0,0.1-0.1,0.2-0.1,0.4v3.9
			h-0.6v-5.4h0.2l0.4,0.5c0.1-0.2,0.3-0.4,0.6-0.5c0.2-0.1,0.5-0.2,0.7-0.2h0.2c0.2,0,0.4,0,0.6,0.1c0.2,0.1,0.4,0.2,0.5,0.3
			s0.3,0.3,0.3,0.5c0.1,0.2,0.1,0.4,0.1,0.6v3.9H183.4z"/>
		<path class="st0" d="M187.3,57.4c-0.2,0-0.4,0-0.6-0.1c-0.2-0.1-0.3-0.2-0.5-0.3c-0.1-0.1-0.2-0.3-0.3-0.5
			c-0.1-0.2-0.1-0.4-0.1-0.6v-3.3h-1v-0.6h1v-1.3l0.6-0.1v1.4h1.4v0.6h-1.4V56c0,0.1,0,0.2,0.1,0.3c0,0.1,0.1,0.2,0.2,0.2
			c0.1,0.1,0.2,0.1,0.2,0.2c0.1,0,0.2,0.1,0.3,0.1h0.6v0.6H187.3z"/>
		<path class="st0" d="M192.6,56.6c-0.1,0.2-0.2,0.4-0.3,0.5s-0.3,0.3-0.5,0.3c-0.2,0.1-0.4,0.1-0.6,0.1h-0.4c-0.2,0-0.4,0-0.6-0.1
			c-0.2-0.1-0.4-0.2-0.5-0.3s-0.3-0.3-0.3-0.5c-0.1-0.2-0.1-0.4-0.1-0.6v-2.4c0-0.2,0-0.4,0.1-0.6c0.1-0.2,0.2-0.4,0.3-0.5
			s0.3-0.3,0.5-0.3c0.2-0.1,0.4-0.1,0.6-0.1h0.4c0.2,0,0.4,0,0.6,0.1c0.2,0.1,0.4,0.2,0.5,0.3s0.3,0.3,0.3,0.5
			c0.1,0.2,0.1,0.4,0.1,0.6V56C192.7,56.2,192.7,56.4,192.6,56.6z M192.1,53.5c0-0.1,0-0.3-0.1-0.4c0-0.1-0.1-0.2-0.2-0.3
			c-0.1-0.1-0.2-0.2-0.3-0.2c-0.1,0-0.2-0.1-0.4-0.1h-0.4c-0.1,0-0.3,0-0.4,0.1c-0.1,0-0.2,0.1-0.3,0.2c-0.1,0.1-0.2,0.2-0.2,0.3
			c0,0.1-0.1,0.2-0.1,0.4V56c0,0.1,0,0.3,0.1,0.4c0,0.1,0.1,0.2,0.2,0.3s0.2,0.2,0.3,0.2c0.1,0,0.2,0.1,0.4,0.1h0.4
			c0.1,0,0.3,0,0.4-0.1c0.1,0,0.2-0.1,0.3-0.2c0.1-0.1,0.2-0.2,0.2-0.3c0-0.1,0.1-0.2,0.1-0.4V53.5z"/>
		<path class="st0" d="M199.9,57.4l-0.4-0.5c-0.1,0.2-0.3,0.4-0.6,0.5c-0.2,0.1-0.5,0.2-0.7,0.2h-0.2c-0.2,0-0.4,0-0.6-0.1
			c-0.2-0.1-0.4-0.2-0.5-0.3s-0.3-0.3-0.3-0.5c-0.1-0.2-0.1-0.4-0.1-0.6v-2.4c0-0.2,0-0.4,0.1-0.6c0.1-0.2,0.2-0.4,0.3-0.5
			s0.3-0.3,0.5-0.3c0.2-0.1,0.4-0.1,0.6-0.1h0.2c0.2,0,0.5,0,0.7,0.1s0.4,0.2,0.5,0.4v-2.6h0.6v7.5H199.9z M199.4,53.5
			c0-0.1,0-0.3-0.1-0.4c0-0.1-0.1-0.2-0.2-0.3c-0.1-0.1-0.2-0.2-0.3-0.2c-0.1,0-0.2-0.1-0.4-0.1h-0.4c-0.1,0-0.3,0-0.4,0.1
			c-0.1,0-0.2,0.1-0.3,0.2c-0.1,0.1-0.2,0.2-0.2,0.3c0,0.1-0.1,0.2-0.1,0.4V56c0,0.1,0,0.3,0.1,0.4c0,0.1,0.1,0.2,0.2,0.3
			s0.2,0.2,0.3,0.2c0.1,0,0.2,0.1,0.4,0.1h0.4c0.1,0,0.3,0,0.4-0.1c0.1,0,0.2-0.1,0.3-0.2c0.1-0.1,0.2-0.2,0.2-0.3
			c0-0.1,0.1-0.2,0.1-0.4V53.5z"/>
		<path class="st0" d="M204.8,56.6c-0.1,0.2-0.2,0.4-0.3,0.5s-0.3,0.3-0.5,0.3c-0.2,0.1-0.4,0.1-0.6,0.1H203c-0.2,0-0.4,0-0.6-0.1
			c-0.2-0.1-0.4-0.2-0.5-0.3s-0.3-0.3-0.3-0.5c-0.1-0.2-0.1-0.4-0.1-0.6v-2.4c0-0.2,0-0.4,0.1-0.6c0.1-0.2,0.2-0.4,0.3-0.5
			s0.3-0.3,0.5-0.3c0.2-0.1,0.4-0.1,0.6-0.1h0.4c0.2,0,0.4,0,0.6,0.1c0.2,0.1,0.4,0.2,0.5,0.3s0.3,0.3,0.3,0.5
			c0.1,0.2,0.1,0.4,0.1,0.6v1.3H202V56c0,0.1,0,0.3,0.1,0.4c0,0.1,0.1,0.2,0.2,0.3c0.1,0.1,0.2,0.2,0.3,0.2c0.1,0,0.2,0.1,0.4,0.1
			h0.4c0.1,0,0.3,0,0.4-0.1c0.1,0,0.2-0.1,0.3-0.2c0.1-0.1,0.2-0.2,0.2-0.3c0-0.1,0.1-0.2,0.1-0.4v-0.4l0.6,0.1V56
			C205,56.2,204.9,56.4,204.8,56.6z M204.3,53.5c0-0.1,0-0.3-0.1-0.4c0-0.1-0.1-0.2-0.2-0.3c-0.1-0.1-0.2-0.2-0.3-0.2
			c-0.1,0-0.2-0.1-0.4-0.1H203c-0.1,0-0.3,0-0.4,0.1c-0.1,0-0.2,0.1-0.3,0.2c-0.1,0.1-0.2,0.2-0.2,0.3c0,0.1-0.1,0.2-0.1,0.4v0.8
			h2.3V53.5z"/>
		<path class="st0" d="M212.9,56.4c-0.1,0.2-0.2,0.4-0.4,0.6c-0.2,0.2-0.4,0.3-0.6,0.4c-0.2,0.1-0.5,0.1-0.7,0.1h-0.5
			c-0.3,0-0.5,0-0.7-0.1c-0.2-0.1-0.4-0.2-0.6-0.4c-0.2-0.2-0.3-0.4-0.4-0.6c-0.1-0.2-0.1-0.5-0.1-0.7v-4c0-0.3,0-0.5,0.1-0.7
			c0.1-0.2,0.2-0.4,0.4-0.6c0.2-0.2,0.4-0.3,0.6-0.4c0.2-0.1,0.5-0.1,0.7-0.1h0.5c0.3,0,0.5,0,0.7,0.1c0.2,0.1,0.4,0.2,0.6,0.4
			c0.2,0.2,0.3,0.4,0.4,0.6c0.1,0.2,0.1,0.5,0.1,0.7v0.3l-0.7,0.1v-0.4c0-0.2,0-0.3-0.1-0.5c-0.1-0.1-0.1-0.3-0.3-0.4
			c-0.1-0.1-0.2-0.2-0.4-0.3c-0.1-0.1-0.3-0.1-0.5-0.1h-0.5c-0.2,0-0.3,0-0.5,0.1c-0.1,0.1-0.3,0.1-0.4,0.3
			c-0.1,0.1-0.2,0.2-0.3,0.4c-0.1,0.1-0.1,0.3-0.1,0.5v4c0,0.2,0,0.3,0.1,0.5c0.1,0.1,0.1,0.3,0.3,0.4s0.2,0.2,0.4,0.3
			c0.1,0.1,0.3,0.1,0.5,0.1h0.5c0.2,0,0.3,0,0.5-0.1c0.1-0.1,0.3-0.1,0.4-0.3c0.1-0.1,0.2-0.2,0.3-0.4c0.1-0.1,0.1-0.3,0.1-0.5v-0.4
			l0.7,0.1v0.3C213.1,55.9,213,56.2,212.9,56.4z"/>
		<path class="st0" d="M217.8,56.6c-0.1,0.2-0.2,0.4-0.3,0.5s-0.3,0.3-0.5,0.3c-0.2,0.1-0.4,0.1-0.6,0.1H216c-0.2,0-0.4,0-0.6-0.1
			c-0.2-0.1-0.4-0.2-0.5-0.3s-0.3-0.3-0.3-0.5c-0.1-0.2-0.1-0.4-0.1-0.6v-2.4c0-0.2,0-0.4,0.1-0.6c0.1-0.2,0.2-0.4,0.3-0.5
			s0.3-0.3,0.5-0.3c0.2-0.1,0.4-0.1,0.6-0.1h0.4c0.2,0,0.4,0,0.6,0.1c0.2,0.1,0.4,0.2,0.5,0.3s0.3,0.3,0.3,0.5
			c0.1,0.2,0.1,0.4,0.1,0.6V56C218,56.2,217.9,56.4,217.8,56.6z M217.3,53.5c0-0.1,0-0.3-0.1-0.4c0-0.1-0.1-0.2-0.2-0.3
			c-0.1-0.1-0.2-0.2-0.3-0.2c-0.1,0-0.2-0.1-0.4-0.1H216c-0.1,0-0.3,0-0.4,0.1c-0.1,0-0.2,0.1-0.3,0.2c-0.1,0.1-0.2,0.2-0.2,0.3
			c0,0.1-0.1,0.2-0.1,0.4V56c0,0.1,0,0.3,0.1,0.4c0,0.1,0.1,0.2,0.2,0.3s0.2,0.2,0.3,0.2c0.1,0,0.2,0.1,0.4,0.1h0.4
			c0.1,0,0.3,0,0.4-0.1c0.1,0,0.2-0.1,0.3-0.2c0.1-0.1,0.2-0.2,0.2-0.3c0-0.1,0.1-0.2,0.1-0.4V53.5z"/>
		<path class="st0" d="M222.2,57.4v-3.9c0-0.1,0-0.3-0.1-0.4c0-0.1-0.1-0.2-0.2-0.3c-0.1-0.1-0.2-0.2-0.3-0.2
			c-0.1,0-0.2-0.1-0.4-0.1h-0.4c-0.1,0-0.3,0-0.4,0.1c-0.1,0-0.2,0.1-0.3,0.2c-0.1,0.1-0.2,0.2-0.2,0.3c0,0.1-0.1,0.2-0.1,0.4v3.9
			h-0.6v-5.4h0.2l0.4,0.5c0.1-0.2,0.3-0.4,0.6-0.5c0.2-0.1,0.5-0.2,0.7-0.2h0.2c0.2,0,0.4,0,0.6,0.1c0.2,0.1,0.4,0.2,0.5,0.3
			s0.3,0.3,0.3,0.5c0.1,0.2,0.1,0.4,0.1,0.6v3.9H222.2z"/>
		<path class="st0" d="M227.6,56.6c-0.1,0.2-0.2,0.4-0.3,0.5s-0.3,0.3-0.5,0.3c-0.2,0.1-0.4,0.1-0.6,0.1h-0.4c-0.2,0-0.4,0-0.6-0.1
			c-0.2-0.1-0.4-0.2-0.5-0.3c-0.1-0.1-0.3-0.3-0.3-0.5c-0.1-0.2-0.1-0.4-0.1-0.6v-2.4c0-0.2,0-0.4,0.1-0.6c0.1-0.2,0.2-0.4,0.3-0.5
			c0.1-0.1,0.3-0.3,0.5-0.3c0.2-0.1,0.4-0.1,0.6-0.1h0.4c0.2,0,0.4,0,0.6,0.1c0.2,0.1,0.4,0.2,0.5,0.3s0.3,0.3,0.3,0.5
			c0.1,0.2,0.1,0.4,0.1,0.6v0.2l-0.6,0.1v-0.4c0-0.1,0-0.3-0.1-0.4c0-0.1-0.1-0.2-0.2-0.3c-0.1-0.1-0.2-0.2-0.3-0.2
			c-0.1,0-0.2-0.1-0.4-0.1h-0.4c-0.1,0-0.3,0-0.4,0.1c-0.1,0-0.2,0.1-0.3,0.2c-0.1,0.1-0.2,0.2-0.2,0.3c0,0.1-0.1,0.2-0.1,0.4V56
			c0,0.1,0,0.3,0.1,0.4c0,0.1,0.1,0.2,0.2,0.3c0.1,0.1,0.2,0.2,0.3,0.2c0.1,0,0.2,0.1,0.4,0.1h0.4c0.1,0,0.3,0,0.4-0.1
			c0.1,0,0.2-0.1,0.3-0.2c0.1-0.1,0.2-0.2,0.2-0.3c0-0.1,0.1-0.2,0.1-0.4v-0.4l0.6,0.1V56C227.7,56.2,227.7,56.4,227.6,56.6z"/>
		<path class="st0" d="M229.9,59.6h-0.6l1-2.6l-1.7-4.9h0.6l1.4,4.1l0,0.3l0-0.3l1.4-4.1h0.6L229.9,59.6z"/>
		<path class="st0" d="M235.2,57.4c-0.2,0-0.4,0-0.6-0.1c-0.2-0.1-0.3-0.2-0.5-0.3c-0.1-0.1-0.2-0.3-0.3-0.5
			c-0.1-0.2-0.1-0.4-0.1-0.6v-3.3h-1v-0.6h1v-1.3l0.6-0.1v1.4h1.4v0.6h-1.4V56c0,0.1,0,0.2,0.1,0.3c0,0.1,0.1,0.2,0.2,0.2
			c0.1,0.1,0.2,0.1,0.2,0.2c0.1,0,0.2,0.1,0.3,0.1h0.6v0.6H235.2z"/>
		<path class="st0" d="M240.5,56.6c-0.1,0.2-0.2,0.4-0.3,0.5s-0.3,0.3-0.5,0.3c-0.2,0.1-0.4,0.1-0.6,0.1h-0.4c-0.2,0-0.4,0-0.6-0.1
			c-0.2-0.1-0.4-0.2-0.5-0.3s-0.3-0.3-0.3-0.5c-0.1-0.2-0.1-0.4-0.1-0.6v-2.4c0-0.2,0-0.4,0.1-0.6c0.1-0.2,0.2-0.4,0.3-0.5
			s0.3-0.3,0.5-0.3c0.2-0.1,0.4-0.1,0.6-0.1h0.4c0.2,0,0.4,0,0.6,0.1c0.2,0.1,0.4,0.2,0.5,0.3s0.3,0.3,0.3,0.5
			c0.1,0.2,0.1,0.4,0.1,0.6v1.3h-2.9V56c0,0.1,0,0.3,0.1,0.4c0,0.1,0.1,0.2,0.2,0.3c0.1,0.1,0.2,0.2,0.3,0.2c0.1,0,0.2,0.1,0.4,0.1
			h0.4c0.1,0,0.3,0,0.4-0.1c0.1,0,0.2-0.1,0.3-0.2c0.1-0.1,0.2-0.2,0.2-0.3c0-0.1,0.1-0.2,0.1-0.4v-0.4l0.6,0.1V56
			C240.6,56.2,240.6,56.4,240.5,56.6z M240,53.5c0-0.1,0-0.3-0.1-0.4c0-0.1-0.1-0.2-0.2-0.3c-0.1-0.1-0.2-0.2-0.3-0.2
			c-0.1,0-0.2-0.1-0.4-0.1h-0.4c-0.1,0-0.3,0-0.4,0.1c-0.1,0-0.2,0.1-0.3,0.2c-0.1,0.1-0.2,0.2-0.2,0.3c0,0.1-0.1,0.2-0.1,0.4v0.8
			h2.3V53.5z"/>
		<path class="st0" d="M245.4,56.6c-0.1,0.2-0.2,0.4-0.3,0.5s-0.3,0.3-0.5,0.3c-0.2,0.1-0.4,0.1-0.6,0.1h-0.4c-0.2,0-0.4,0-0.6-0.1
			c-0.2-0.1-0.4-0.2-0.5-0.3s-0.3-0.3-0.3-0.5c-0.1-0.2-0.1-0.4-0.1-0.6v-2.4c0-0.2,0-0.4,0.1-0.6c0.1-0.2,0.2-0.4,0.3-0.5
			s0.3-0.3,0.5-0.3c0.2-0.1,0.4-0.1,0.6-0.1h0.4c0.2,0,0.4,0,0.6,0.1c0.2,0.1,0.4,0.2,0.5,0.3s0.3,0.3,0.3,0.5
			c0.1,0.2,0.1,0.4,0.1,0.6v0.2l-0.6,0.1v-0.4c0-0.1,0-0.3-0.1-0.4c0-0.1-0.1-0.2-0.2-0.3c-0.1-0.1-0.2-0.2-0.3-0.2
			c-0.1,0-0.2-0.1-0.4-0.1h-0.4c-0.1,0-0.3,0-0.4,0.1c-0.1,0-0.2,0.1-0.3,0.2c-0.1,0.1-0.2,0.2-0.2,0.3c0,0.1-0.1,0.2-0.1,0.4V56
			c0,0.1,0,0.3,0.1,0.4c0,0.1,0.1,0.2,0.2,0.3c0.1,0.1,0.2,0.2,0.3,0.2c0.1,0,0.2,0.1,0.4,0.1h0.4c0.1,0,0.3,0,0.4-0.1
			c0.1,0,0.2-0.1,0.3-0.2c0.1-0.1,0.2-0.2,0.2-0.3c0-0.1,0.1-0.2,0.1-0.4v-0.4l0.6,0.1V56C245.5,56.2,245.5,56.4,245.4,56.6z"/>
	</g>
	<g>
		<path class="st1" d="M59.6,33.9c0,4.6,3.3,8.1,8.2,8.1c4.1,0,6.3-2.6,6.3-2.6l-2-2.8c0,0-1.8,1.9-4.2,1.9c-2.9,0-4.4-2.4-4.4-4.7
			c0-2.3,1.4-4.5,4.4-4.5c2.2,0,3.9,1.6,3.9,1.6l1.8-2.9c0,0-2-2.2-5.9-2.2C63.1,25.8,59.6,29.3,59.6,33.9L59.6,33.9z"/>
		<rect x="79.3" y="26.1" class="st1" width="3.8" height="15.7"/>
		<polygon class="st1" points="89.7,41.7 99.8,41.7 99.8,38.5 93.5,38.5 93.5,35.5 98.3,35.5 98.3,32.2 93.5,32.2 93.5,29.4 
			99.5,29.4 99.5,26.1 89.7,26.1 		"/>
		<path class="st1" d="M105.4,41.7h3.8v-7.3c0-1-0.2-2.7-0.2-2.7l0,0c0,0,0.7,1.6,1.3,2.7l4.4,7.3h3.9V26.1h-3.8v7.3
			c0,1,0.2,2.7,0.2,2.7h0c0,0-0.7-1.6-1.3-2.7l-4.3-7.3h-3.9V41.7z"/>
		<path class="st1" d="M124.1,33.9c0,4.6,3.3,8.1,8.2,8.1c4.1,0,6.3-2.6,6.3-2.6l-2-2.8c0,0-1.8,1.9-4.2,1.9c-2.9,0-4.4-2.4-4.4-4.7
			c0-2.3,1.4-4.5,4.4-4.5c2.2,0,3.9,1.6,3.9,1.6l1.8-2.9c0,0-2-2.2-5.9-2.2C127.6,25.8,124.1,29.3,124.1,33.9L124.1,33.9z"/>
		<rect x="143.8" y="26.1" class="st1" width="3.8" height="15.7"/>
		<path class="st2" d="M163,41.7h3.9l-5.3-15.7h-4l-5.3,15.7h3.9l0.9-3.3h4.9L163,41.7L163,41.7z M159.6,29.6c0,0,0.4,1.7,0.6,2.7
			l0.9,3H158l0.9-3C159.2,31.4,159.5,29.6,159.6,29.6L159.6,29.6z"/>
		<path class="st1" d="M169.9,33.9c0,4.6,3.3,8.1,8.2,8.1c4.1,0,6.3-2.6,6.3-2.6l-2-2.8c0,0-1.8,1.9-4.2,1.9c-2.9,0-4.4-2.4-4.4-4.7
			c0-2.3,1.4-4.5,4.4-4.5c2.2,0,3.9,1.6,3.9,1.6L184,28c0,0-2-2.2-5.9-2.2C173.4,25.8,169.9,29.3,169.9,33.9L169.9,33.9z"/>
		<polygon class="st1" points="192.6,41.7 196.4,41.7 196.4,29.4 201.2,29.4 201.2,26.1 187.8,26.1 187.8,29.4 192.6,29.4 		"/>
		<rect x="205.9" y="26.1" class="st1" width="3.8" height="15.7"/>
		<path class="st1" d="M219.9,41.7h4l5.5-15.7h-4.1l-2.8,8.9c-0.3,1-0.6,2.5-0.6,2.5l0,0c0,0-0.3-1.5-0.6-2.5l-2.8-8.9h-4.2
			L219.9,41.7z"/>
		<path class="st1" d="M242.2,41.7h3.9l-5.3-15.7h-4l-5.3,15.7h3.9l0.9-3.3h4.9L242.2,41.7L242.2,41.7z M238.8,29.6
			c0,0,0.4,1.7,0.6,2.7l0.9,3h-3.1l0.9-3C238.4,31.4,238.8,29.6,238.8,29.6L238.8,29.6z"/>
	</g>
	<g>
		<circle class="st3" cx="10.3" cy="24" r="4"/>
		<path class="st4" d="M32.6,10.5c-1,0-2,0.4-2.8,1.1c-1.6,1.5-1.6,4.1,0,5.6c0.8,0.8,1.8,1.2,2.8,1.2c1,0,2-0.4,2.8-1.1
			c1.6-1.5,1.6-4.1,0-5.6C34.6,10.9,33.6,10.5,32.6,10.5z"/>
		<circle class="st2" cx="38.6" cy="33.8" r="4"/>
		<g>
			<path class="st0" d="M28,33.4l-5.7-9.8c-0.1-0.2-0.4-0.4-0.7-0.4h-5.8c0,0.3,0.1,0.5,0.1,0.8s0,0.5-0.1,0.8h5.4l5.2,9l-5.2,9
				H10.7l-5.2-9l2.7-4.7c-0.5-0.2-0.9-0.5-1.3-0.8L4,33.4c-0.1,0.2-0.1,0.5,0,0.8L9.6,44c0.1,0.2,0.4,0.4,0.7,0.4h11.3
				c0.3,0,0.5-0.1,0.7-0.4l5.7-9.8C28.1,34,28.1,33.7,28,33.4z"/>
			<path class="st0" d="M48.8,16.2L39,10.5c-0.2-0.1-0.5-0.1-0.8,0L37,11.2c0.3,0.4,0.6,0.9,0.7,1.4l0.8-0.5l9,5.2v10.4L43,30.4
				c0.3,0.4,0.6,0.9,0.8,1.3l5.1-2.9c0.2-0.1,0.4-0.4,0.4-0.7V16.9C49.2,16.6,49,16.3,48.8,16.2z"/>
			<g>
				<path class="st0" d="M44.9,43.3L42,38.2c-0.4,0.3-0.9,0.6-1.3,0.8l2.7,4.7l-5.2,9h-5.4c0,0.3,0.1,0.5,0.1,0.8
					c0,0.3,0,0.5-0.1,0.8h5.9c0.3,0,0.5-0.1,0.7-0.4l5.7-9.8C45.1,43.8,45.1,43.5,44.9,43.3z"/>
				<path class="st0" d="M25.2,48.3l-2.7-4.7l5.2-9h5.4c0-0.3-0.1-0.5-0.1-0.8c0-0.3,0-0.5,0.1-0.8h-5.8c-0.3,0-0.5,0.1-0.7,0.4
					L21,43.3c-0.1,0.2-0.1,0.5,0,0.8l2.9,5.1C24.3,48.8,24.7,48.5,25.2,48.3z"/>
			</g>
		</g>
		<circle class="st4" cx="27.3" cy="53.5" r="4"/>
	</g>
</g>
</svg>
