<?xml version="1.0" encoding="utf-8"?>
<!-- Generator: Adobe Illustrator 18.0.0, SVG Export Plug-In . SVG Version: 6.00 Build 0)  -->
<!DOCTYPE svg PUBLIC "-//W3C//DTD SVG 1.1//EN" "http://www.w3.org/Graphics/SVG/1.1/DTD/svg11.dtd">
<svg version="1.1" id="Capa_1" xmlns="http://www.w3.org/2000/svg" xmlns:xlink="http://www.w3.org/1999/xlink" x="0px" y="0px"
	 viewBox="0 0 58.2 25.4" enable-background="new 0 0 58.2 25.4" xml:space="preserve">
<g>
	<path fill="#484A4D" d="M2,8.6c0-0.2,0.1-0.3,0.2-0.5C2.3,8,2.5,7.9,2.7,7.9h0.8v8.9c0,0.2-0.1,0.3-0.2,0.5
		c-0.1,0.1-0.3,0.2-0.5,0.2H2V8.6z"/>
	<path fill="#484A4D" d="M10.7,17.5H10c-0.2,0-0.4-0.1-0.5-0.2c-0.1-0.1-0.2-0.3-0.2-0.5v-3.7c0-0.8-0.4-1.2-1.2-1.2
		c-1,0-1.6,0.4-1.9,1.2v3.7c0,0.2-0.1,0.3-0.2,0.5c-0.1,0.1-0.3,0.2-0.5,0.2H4.8v-6.8h0.7c0.2,0,0.4,0.1,0.5,0.2
		c0.1,0.1,0.2,0.3,0.2,0.5c0.4-0.5,1.1-0.8,2-0.8c1.7,0,2.5,0.8,2.5,2.3V17.5z"/>
	<path fill="#484A4D" d="M15.7,13.1c0-0.5-0.1-0.8-0.3-1C15.3,12,15.1,12,14.7,12c-0.7,0-1.2,0.4-1.5,1.2v3.7c0,0.2-0.1,0.3-0.2,0.5
		c-0.1,0.1-0.3,0.2-0.5,0.2h-0.7v-6.8h0.7c0.2,0,0.4,0.1,0.5,0.2c0.1,0.1,0.2,0.3,0.2,0.5c0.4-0.5,1-0.8,1.7-0.8
		c1.2,0,1.9,0.4,2.1,1.1c0.4-0.7,1-1.1,1.9-1.1c1.5,0,2.3,0.8,2.3,2.3v4.6h-0.7c-0.2,0-0.4-0.1-0.5-0.2c-0.1-0.1-0.2-0.3-0.2-0.5
		v-3.7c0-0.5-0.1-0.8-0.3-1C19.3,12,19.1,12,18.7,12c-0.7,0-1.2,0.4-1.5,1.2v3.7c0,0.2-0.1,0.3-0.2,0.5c-0.1,0.1-0.3,0.2-0.5,0.2
		h-0.7V13.1z"/>
	<path fill="#484A4D" d="M21.9,14.1c0-2.3,1-3.5,3.1-3.5c1.1,0,1.9,0.3,2.4,1c0.4,0.5,0.6,1.3,0.6,2.4c0,0.4-0.2,0.6-0.7,0.6h-3.8
		c0,1,0.6,1.5,1.8,1.5c0.6,0,1.3-0.1,2-0.4c0.1,0,0.2,0,0.3,0c0.3,0,0.5,0.1,0.5,0.4v0.6c-0.7,0.4-1.6,0.7-2.7,0.7
		C23,17.6,21.9,16.4,21.9,14.1z M26.5,13.4c0-0.5-0.1-0.8-0.3-1C25.9,12.1,25.6,12,25,12c-0.6,0-1,0.1-1.2,0.4
		c-0.2,0.2-0.3,0.6-0.4,1H26.5z"/>
	<path fill="#484A4D" d="M28.8,10.7h0.7c0.2,0,0.4,0.1,0.5,0.2c0.1,0.1,0.2,0.3,0.2,0.5c0.4-0.5,0.6-0.8,1.4-0.8
		c0.4,0,0.6,0.1,1.1,0.2v0.6c0,0.4-0.2,0.6-0.7,0.6c-0.3,0-0.2-0.1-0.6-0.1c-0.7,0-0.9,0.6-1.2,1.4v3.4c0,0.2-0.1,0.3-0.2,0.5
		c-0.1,0.1-0.3,0.2-0.5,0.2h-0.7V10.7z"/>
	<path fill="#484A4D" d="M38,10.7c0.2,0,0.4,0.1,0.5,0.2c0.1,0.1,0.2,0.3,0.2,0.5V12l-3.4,4.3H38c0.2,0,0.4,0.1,0.5,0.2
		c0.1,0.1,0.2,0.3,0.2,0.5v0.6h-4.5c-0.2,0-0.4-0.1-0.5-0.2c-0.1-0.1-0.2-0.3-0.2-0.5v-0.5l3.4-4.3h-2.7c-0.2,0-0.4-0.1-0.5-0.2
		c-0.1-0.1-0.2-0.3-0.2-0.5v-0.6H38z"/>
	<path fill="#484A4D" d="M41.7,17.6c-1.7,0-2.5-0.8-2.5-2.3v-4.6H40c0.2,0,0.4,0.1,0.5,0.2c0.1,0.1,0.2,0.3,0.2,0.5v3.7
		c0,0.8,0.4,1.2,1.2,1.2c1,0,1.6-0.4,1.9-1.1v-3.8c0-0.2,0.1-0.3,0.2-0.5c0.1-0.1,0.3-0.2,0.5-0.2h0.7v6.8h-0.7
		c-0.2,0-0.4-0.1-0.5-0.2c-0.1-0.1-0.2-0.3-0.2-0.5C43.4,17.4,42.7,17.6,41.7,17.6z"/>
	<path fill="#484A4D" d="M50.2,13.1c0-0.5-0.1-0.8-0.3-1C49.8,12,49.6,12,49.2,12c-0.7,0-1.2,0.4-1.5,1.2v3.7c0,0.2-0.1,0.3-0.2,0.5
		c-0.1,0.1-0.3,0.2-0.5,0.2h-0.7v-6.8H47c0.2,0,0.4,0.1,0.5,0.2c0.1,0.1,0.2,0.3,0.2,0.5c0.4-0.5,1-0.8,1.7-0.8
		c1.2,0,1.9,0.4,2.1,1.1c0.4-0.7,1-1.1,1.9-1.1c1.5,0,2.3,0.8,2.3,2.3v6.1h-0.7c-0.2,0-0.4-0.1-0.5-0.2c-0.1-0.1-0.2-0.3-0.2-0.5
		v-5.3c0-0.5-0.1-0.8-0.3-1C53.8,12,53.6,12,53.2,12c-0.7,0-1.2,0.4-1.5,1.2v3.7c0,0.2-0.1,0.3-0.2,0.5c-0.1,0.1-0.3,0.2-0.5,0.2
		h-0.7V13.1z"/>
</g>
</svg>
